<svg viewBox="0 0 128 128" xmlns="http://www.w3.org/2000/svg">
                <defs>
                    <clipPath id="A">
                        <path d="m-104.60865,601.95692l612,0l0,-792l-612,0l0,792z" id="svg_1" />
                    </clipPath>
                    <clipPath id="B">
                        <path d="m-104.60865,601.95692l612,0l0,-792l-612,0l0,792z" id="svg_2" />
                    </clipPath>
                    <clipPath id="C">
                        <path d="m-8.60065,525.88692l88.3,0l0,-62.176l-88.3,0l0,62.176z" id="svg_3" />
                    </clipPath>
                    <clipPath id="D">
                        <path d="m-104.60865,601.95692l612,0l0,-792l-612,0l0,792z" id="svg_4" />
                    </clipPath>
                    <clipPath id="E">
                        <path d="m-104.60865,601.95692l612,0l0,-792l-612,0l0,792z" id="svg_5" />
                    </clipPath>
                    <clipPath id="F">
                        <path d="m-104.60865,601.95692l612,0l0,-792l-612,0l0,792z" id="svg_6" />
                    </clipPath>
                    <clipPath id="G">
                        <path d="m-104.60865,601.95692l612,0l0,-792l-612,0l0,792z" id="svg_7" />
                    </clipPath>
                    <clipPath id="H">
                        <path d="m16.59335,518.33492l45.9,0l0,-45.86l-45.9,0l0,45.86z" id="svg_8" />
                    </clipPath>
                    <clipPath id="I">
                        <path d="m-104.60865,601.95692l612,0l0,-792l-612,0l0,792z" id="svg_9" />
                    </clipPath>
                    <clipPath id="J">
                        <path d="m-64.20565,536.14492l212.402,0l0,-61.818l-212.402,0l0,61.818z" id="svg_10" />
                    </clipPath>
                    <clipPath id="K">
                        <path d="m-104.60865,601.95692l612,0l0,-792l-612,0l0,792z" id="svg_11" />
                    </clipPath>
                    <clipPath id="L">
                        <path d="m-65.08865,498.3989l199.38,0l0,-73.818l-199.38,0l0,73.818z" id="svg_12" />
                    </clipPath>
                    <clipPath id="M">
                        <path d="m-15.70557,837.48792l612,0l0,-792l-612,0l0,792z" id="svg_13" />
                    </clipPath>
                </defs>
                <g>
                    <title>Layer 1</title>
                    <g clip-path="url(#M)" transform="matrix(0.666559, 0, 0, -0.666559, -9.30332, 413.885)" fill="#373535" id="svg_14">
                        <path fill="#000000" d="m27.98154,493.13874c1.824,0 3.552,-0.432 4.417,-1.296c0.144,-1.345 -1.057,-3.505 -1.825,-3.505c-0.912,0.336 -1.776,0.53 -2.832,0.53c-4.368,0 -6.53,-4.513 -6.53,-8.977c0,-2.784 0.96,-4.465 3.17,-4.465c2.352,0 4.752,1.584 6.096,2.784c0.336,-0.24 0.768,-1.008 0.768,-1.872c0,-0.96 -0.288,-1.872 -1.152,-2.736c-1.536,-1.536 -4.128,-2.832 -7.873,-2.832c-4.32,0 -7.296,2.448 -7.296,8.16c0,7.488 4.944,14.2 13,14.2l0.057,0.009zm14.112,-17.473c2.352,0 6.625,4.13 7.825,12c0.048,0.48 0.096,0.624 0.192,1.104a6.02,6.02 0 0 1 -1.969,0.336c-1.776,0 -3.6,-0.528 -5.232,-2.736c-1.68,-2.352 -2.4,-5.28 -2.4,-7.633c0,-2.015 0.576,-3.072 1.536,-3.072l0.048,0.001zm-7.73,2.16c0,2.832 0.96,7.777 4.56,11.377c3.072,3.168 6.816,3.937 10.225,3.937c2.256,0 5.328,-0.72 7.248,-1.105c-0.48,-2.112 -1.632,-10.08 -2.16,-14.688c-0.24,-1.97 -0.336,-4.705 -0.24,-5.713c-1.584,-0.672 -4.56,-0.864 -5.377,-0.864c-0.43,0 -0.528,1.968 -0.383,3.84a51.79,51.79 0 0 0 0.191,1.92c-1.872,-3.12 -5.568,-5.76 -9.456,-5.76c-2.784,0 -4.6,2.304 -4.6,7.008l-0.008,0.048zm33.976,15.313c1.968,0 3.84,-0.72 4.705,-1.632c-0.048,-1.345 -1.104,-3.6 -2.785,-2.976c-0.72,0.24 -1.44,0.43 -2.4,0.43c-1.296,0 -2.4,-0.576 -2.4,-1.775c0,-0.912 0.672,-1.585 3.888,-3.84c2.305,-1.68 3.217,-3.168 3.217,-5.28c0,-3.505 -3.313,-7.297 -9.073,-7.297c-2.352,0 -4.417,0.912 -5.1,1.872c-0.864,1.44 -0.192,4.272 0.77,3.793c1.248,-0.624 3.312,-1.297 4.992,-1.297c1.584,0 2.592,0.72 2.592,1.68c0,0.815 -0.72,1.536 -3.648,3.6c-2.45,1.824 -3.217,3.504 -3.217,5.424c0,3.984 3.4,7.297 8.4,7.297l0.059,0.001zm16.56,0c1.97,0 3.84,-0.72 4.705,-1.632c-0.048,-1.345 -1.103,-3.6 -2.784,-2.976c-0.72,0.24 -1.44,0.43 -2.4,0.43c-1.296,0 -2.4,-0.576 -2.4,-1.775c0,-0.912 0.672,-1.585 3.888,-3.84c2.304,-1.68 3.216,-3.168 3.216,-5.28c0,-3.505 -3.313,-7.297 -9.073,-7.297c-2.352,0 -4.416,0.912 -5.088,1.872c-0.864,1.44 -0.192,4.272 0.768,3.793c1.248,-0.624 3.312,-1.297 4.992,-1.297c1.584,0 2.592,0.72 2.592,1.68c0,0.815 -0.72,1.536 -3.648,3.6c-2.448,1.824 -3.216,3.504 -3.216,5.424c0,3.984 3.408,7.297 8.4,7.297l0.048,0.001zm15.118,-17.473c2.353,0 6.625,4.13 7.825,12c0.048,0.48 0.097,0.624 0.193,1.104a6.03,6.03 0 0 1 -1.97,0.336c-1.776,0 -3.6,-0.528 -5.233,-2.736c-1.68,-2.352 -2.4,-5.28 -2.4,-7.633c0,-2.015 0.576,-3.072 1.537,-3.072l0.048,0.001zm-7.73,2.16c0,2.832 0.96,7.777 4.56,11.377c3.072,3.168 6.816,3.937 10.225,3.937c2.256,0 5.33,-0.72 7.25,-1.105c-0.48,-2.112 -1.632,-10.08 -2.16,-14.688c-0.24,-1.97 -0.336,-4.705 -0.24,-5.713c-1.584,-0.672 -4.56,-0.864 -5.376,-0.864c-0.43,0 -0.528,1.968 -0.384,3.84c0.048,0.624 0.144,1.536 0.192,1.92c-1.872,-3.12 -5.568,-5.76 -9.456,-5.76c-2.785,0 -4.6,2.304 -4.6,7.008l-0.011,0.048zm32.882,9.073c2.2,3.552 5.088,6.24 9.12,6.24c3.408,0 4.512,-3.168 3.9,-7.68l-1.297,-7.92c-0.336,-2.353 -0.576,-4.464 -0.527,-5.905c-1.248,-0.624 -4.897,-0.864 -5.713,-0.864c-0.336,0 -0.385,2.64 0.048,5.425l1.584,8.88c0.24,1.4 0.192,3.072 -1.152,3.072c-1.777,0 -6,-2.833 -8.113,-14.45c-0.145,-0.96 -0.528,-1.536 -1.057,-1.872c-0.72,-0.433 -2.256,-0.817 -5.375,-0.865c0.576,2.928 1.488,8.93 2.16,13.345c0.623,4.032 0.864,6.625 0.72,7.633c0.817,0.288 5.1,1.2 5.568,1.2c0.53,0 0.625,-1.488 0.145,-5.1l-0.145,-1.15l0.134,0.011zm24.385,-11.197c2.1,0 6.385,3.937 7.584,10.897c0.05,0.384 0.193,1.104 0.3,1.537c-0.625,0.576 -1.44,0.96 -2.736,0.96c-4.85,0 -7,-5.8 -7,-9.986c0,-2.256 0.77,-3.408 1.824,-3.408l0.028,0zm-3.168,-4.944c-3.072,0 -4.992,2.736 -4.992,7.44c0,7.777 4.847,14.93 13.008,14.93c1.44,0 2.736,-0.384 3.552,-0.864c0.432,2.208 1.44,9.025 1.5,11.04c1.343,0.24 4.224,0.67 5.52,0.67c0.53,0 0.674,-0.527 0.48,-1.727l-3.6,-24.1a50.17,50.17 0 0 1 -0.3,-6.576c-1.535,-0.672 -4.656,-0.816 -5.47,-0.816c-0.338,0 -0.53,2.208 -0.433,4.176l0.144,1.68c-2.4,-3.936 -5.713,-5.856 -9.36,-5.856l-0.049,0.003zm28.127,15.458c2.545,5.665 5.568,6.913 7.537,6.913c0.625,0 1.584,-0.384 2.016,-0.864c0.193,-1.584 -1.055,-4.752 -2.16,-5.952c-0.577,0.288 -1.295,0.576 -2.112,0.576c-1.633,0 -4.85,-2.545 -6.865,-13.5c-0.145,-0.913 -0.432,-1.297 -0.96,-1.537c-0.816,-0.48 -4.033,-0.864 -5.568,-0.912c0.718,3.937 1.966,11.953 2.447,16.658c0.144,1.2 0.2,3.408 0.096,4.272c0.912,0.432 4.513,1.248 5.328,1.248c0.433,0 0.77,-2.64 0.095,-6.913l0.146,0.011zm16.943,-10.55c2.354,0 6.625,4.13 7.826,12c0.047,0.48 0.096,0.624 0.192,1.104a6.02,6.02 0 0 1 -1.969,0.336c-1.776,0 -3.6,-0.528 -5.233,-2.736c-1.68,-2.352 -2.4,-5.28 -2.4,-7.633c0,-2.015 0.576,-3.072 1.537,-3.072l0.047,0.001zm-7.73,2.16c0,2.832 0.96,7.777 4.56,11.377c3.072,3.168 6.816,3.937 10.225,3.937c2.256,0 5.328,-0.72 7.25,-1.105c-0.48,-2.112 -1.633,-10.08 -2.16,-14.688c-0.24,-1.97 -0.337,-4.705 -0.24,-5.713c-1.584,-0.672 -4.56,-0.864 -5.377,-0.864c-0.43,0 -0.527,1.968 -0.384,3.84a49.23,49.23 0 0 0 0.193,1.92c-1.873,-3.12 -5.568,-5.76 -9.457,-5.76c-2.785,0 -4.6,2.304 -4.6,7.008l-0.01,0.048z" id="svg_15" />
                    </g>
                    <g transform="matrix(0.59269, 0, 0, -0.59269, 39.2913, 329.021)" id="svg_16">
                        <g clip-path="url(#A)" id="svg_17">
                            <path d="m106.26935,500.43992c1.584,-18.452 -27.455,-36.014 -64.86,-39.223s-69,9.15 -70.592,27.602s27.455,36.016 64.86,39.225s69,-9.15 70.592,-27.604" fill="#bbe6fb" id="svg_18" />
                        </g>
                        <g clip-path="url(#B)" id="svg_19">
                            <g clip-path="url(#C)" opacity="0.35" id="svg_20">
                                <path d="m36.77535,525.87992c-14.268,0.232 -30.964,-5.433 -43.387,-10.738a35.89,35.89 0 0 1 -1.989,-11.797c0,-21.888 19.764,-39.634 44.145,-39.634s44.145,17.746 44.145,39.634c0,6.927 -1.984,13.435 -5.463,19.1c-9.94,1.545 -23.6,3.2 -37.45,3.434" fill="#fff" id="svg_21" />
                            </g>
                        </g>
                        <g clip-path="url(#D)" id="svg_22">
                            <path d="m35.54435,525.88492c-7.9,0.482 -21.514,-3.64 -32.867,-7.75a33.74,33.74 0 0 1 -2.683,-13.201c0,-19.178 17.388,-34.725 35.782,-34.725c18.273,0 34.44,15.572 35.782,34.725c0.436,6.237 -1.7,12.114 -4.692,17.18c-11.77,2.073 -24.26,3.34 -31.322,3.77" fill="#fff" id="svg_23" />
                        </g>
                        <g clip-path="url(#E)" fill="#373535" id="svg_24">
                            <path d="m15.27335,507.45192c0.97,2.146 2.437,3.197 3.86,4.996c-0.158,0.426 -0.504,1.82 -0.504,2.302a3.91,3.91 0 0 0 3.906,3.906a3.89,3.89 0 0 0 1.44,-0.278c6.465,4.927 14.976,7.075 23.53,5.163a30.5,30.5 0 0 0 2.3,-0.623c-8.453,1.172 -17.98,-1.822 -24.462,-7.053c0.198,-0.467 0.747,-1.802 0.747,-2.34c0,-2.157 -1.396,-2.682 -3.553,-2.682a3.92,3.92 0 0 0 -1.4,0.26c-1.464,-1.966 -3.258,-5.7 -4.136,-8.052c3.584,-3.206 6.822,-4.368 11.042,-5.945c-0.01,0.2 0.145,0.387 0.145,0.592c0,6.503 5.725,11.788 12.23,11.788c5.828,0 10.654,-4.238 11.596,-9.798c2.908,1.85 5.72,3.268 7.863,6c-0.5,0.6 -1.04,2.337 -1.04,3.187c0,1.957 1.588,3.544 3.545,3.544c0.277,0 0.543,-0.04 0.802,-0.1c1.088,2.236 1.9,4.606 2.434,7.05c-10.17,7.53 -29.847,6.502 -29.847,6.502s-15.658,0.817 -26.258,-4.35c0.707,-5.1 2.746,-9.97 5.754,-14.08m48.604,2.944a6.55,6.55 0 0 0 1.42,-1.771c0.95,-1.7 -0.957,-3.275 -2.914,-3.275a3.5,3.5 0 0 0 -0.582,0.059c-2.205,-3.446 -6.067,-7.865 -9.498,-10.1c5.26,-0.862 10.222,-2.97 14.17,-6.225c2.875,5.15 5.08,12.6 5.08,18.907c0,4.8 -2.123,8.334 -5.328,10.92c-0.168,-2.576 -1.543,-6.18 -2.348,-8.526m-42.696,-32.614c1.753,4.84 6.065,8.592 10.144,11.892c-0.597,0.817 -1.492,2.84 -1.865,3.798c-4.975,1.513 -9.377,4.345 -12.8,8.094l-0.082,-0.324a25.87,25.87 0 0 1 -0.44,-8.584a5.13,5.13 0 0 0 4.185,-5.042c0,-1.5 -1.305,-3.647 -2.318,-4.586c1.1,-2.376 1.852,-3.522 3.168,-5.248m-0.3,-4.063c-2.1,2.08 -3.537,6.226 -4.894,8.83a5.13,5.13 0 0 0 -0.78,-0.066c-2.836,0 -5.807,2.38 -5.135,5.134c0.372,1.524 1.424,2.52 3.137,3.353c-0.4,3.157 -0.496,7.695 0.237,10.977c0.2,0.94 0.655,1.38 0.95,2.273c-3.13,4.58 -5.15,10.6 -5.15,16.552c0,0.218 0.01,0.433 0.016,0.65c-5.288,-2.652 -9.253,-6.83 -9.253,-13.407c0,-14.548 8.38,-28.82 20.846,-34.413l0.027,0.118m30.653,20.1c-1.6,-4.582 -5.967,-7.873 -11.1,-7.873a11.72,11.72 0 0 0 -7.267,2.52c-4.127,-3.214 -7.87,-8.86 -9.774,-13.758c0.854,-0.92 1.45,-1.675 2.407,-2.5c2.887,-0.752 6.863,0 9.988,0c12.57,0 23.703,5.592 30.086,15.398c-4.244,2.94 -9.25,5.736 -14.34,6.202" id="svg_25" />
                        </g>
                        <g clip-path="url(#F)" fill="#1287b1" id="svg_26">
                            <path d="m14.95135,505.75092a28.45,28.45 0 0 0 3.605,5.931a3.91,3.91 0 0 0 3.656,5.273a3.89,3.89 0 0 0 1.44,-0.278c6.465,4.927 14.976,7.075 23.53,5.163a30.5,30.5 0 0 0 2.3,-0.623c-8.453,1.172 -17.187,-1.42 -23.668,-6.65c0.198,-0.466 0.306,-0.98 0.306,-1.517a3.91,3.91 0 0 0 -3.906,-3.906a3.92,3.92 0 0 0 -1.4,0.26c-1.464,-1.966 -2.66,-4.138 -3.54,-6.48c3.078,-3.317 6.856,-5.94 11.075,-7.517c-0.01,0.2 -0.03,0.4 -0.03,0.605c0,6.503 5.27,11.775 11.775,11.775c5.828,0 10.654,-4.238 11.596,-9.798c2.908,1.85 5.492,4.226 7.634,6.968a3.5,3.5 0 0 0 -0.81,2.229c0,1.957 1.588,3.544 3.545,3.544c0.277,0 0.543,-0.04 0.802,-0.1c1.088,2.236 1.9,4.606 2.434,7.05c-10.17,7.53 -29.847,6.502 -29.847,6.502s-15.658,0.817 -26.258,-4.35c0.707,-5.1 2.746,-9.97 5.754,-14.08m49.477,4.053c0.72,-0.648 1.18,-1.577 1.18,-2.62c0,-1.957 -1.588,-3.545 -3.545,-3.545a3.5,3.5 0 0 0 -0.582,0.059a28.69,28.69 0 0 0 -8.559,-8.608a28.66,28.66 0 0 0 13.793,-6.201c2.875,5.15 4.518,11.084 4.518,17.402c0,4.8 -2.123,8.334 -5.328,10.92a28.51,28.51 0 0 0 -1.477,-7.406m-42.705,-33.2c1.753,4.84 4.8,9.185 8.878,12.484a11.68,11.68 0 0 0 -1.462,2.67a28.54,28.54 0 0 0 -12.791,8.094l-0.082,-0.324a25.82,25.82 0 0 1 -0.441,-8.584c2.38,-0.444 4.185,-2.53 4.185,-5.042a5.11,5.11 0 0 0 -1.652,-3.767a30.93,30.93 0 0 1 3.365,-5.53m-0.863,-2.843c-2.1,2.08 -3.846,4.467 -5.202,7.07a5.15,5.15 0 0 0 -0.78,-0.065c-2.836,0 -5.135,2.3 -5.135,5.134a5.13,5.13 0 0 0 2.897,4.616a28.47,28.47 0 0 0 0.477,9.714c0.2,0.938 0.466,1.854 0.76,2.75c-3.13,4.578 -4.962,10.113 -4.962,16.076c0,0.218 0.01,0.433 0.015,0.648c-5.288,-2.65 -9.253,-6.83 -9.253,-13.406c0,-14.55 8.688,-27.06 21.155,-32.654l0.027,0.118m30.35,18.352c-1.6,-4.582 -5.967,-7.873 -11.1,-7.873a11.72,11.72 0 0 0 -7.267,2.52c-4.127,-3.214 -7.242,-7.595 -9.144,-12.494c0.853,-0.92 1.765,-1.785 2.723,-2.6c2.888,-0.752 5.917,-1.155 9.042,-1.155c12.57,0 23.62,6.5 30.004,16.295c-4.244,2.94 -9.168,4.84 -14.258,5.305" id="svg_27" />
                        </g>
                        <g clip-path="url(#G)" id="svg_28">
                            <g clip-path="url(#H)" id="svg_29">
                                <path d="m51.61335,495.14392l10.88,2.595l-10.92,0.557l8.887,6.792l-10.084,-3.615l6.853,9.497l-9.465,-6.3l3.3,11.117l-6.5,-9.163l-0.148,11.58l-4.277,-10.314l-3.566,10.437l0.193,-12.295l-6.163,11.02l3.335,-11.702l-9.997,7.27l7.83,-9.84l-12.4,4.564l9.795,-7.247l-12.56,-0.386l12.842,-3.314l-12.853,-2.78l12.687,-0.92l-10.7,-6.85l11.017,3.994l-7.644,-9.68l9.66,7.8l-3.478,-13l7.457,10.572l-1.045,-12.486l4.233,11.32l3.603,-11.897l0.876,11.933l5.348,-10.18l-3.16,11.645l9.793,-7.586l-6.322,9.672l10.744,-4.186l-8.215,8.073l11.016,-0.866l-10.852,4.169z" fill="#fff" id="svg_30" />
                            </g>
                        </g>
                        <g clip-path="url(#I)" id="svg_31">
                            <g clip-path="url(#J)" opacity="0.35" id="svg_32">
                                <path d="m-64.20565,474.32692c33.74,33.74 60.687,44.155 85.143,48.9c3.236,0.63 3.848,7.7 3.848,7.7s0.453,-5.208 2.718,-5.887s5.207,8.152 5.207,8.152s-2.717,-7.926 0,-8.38s7.7,7.7 7.7,7.7s-2.037,-7.02 -0.678,-7.472s8.15,10.2 8.15,10.2s-4.076,-7.02 -0.226,-7.7s9.467,4.8 9.467,4.8s-4.416,-5.005 -2.448,-5.696c8.38,-2.945 15.16,7.945 15.16,7.945s-1.57,-4.775 -5.647,-9.983c8.83,-2.264 15.4,11.04 15.4,11.04l-6.56,-13.303c3.397,-1.813 16.985,13.812 16.985,13.812s-7.02,-12.228 -11.096,-14.718c2.264,-1.812 10.416,5.434 10.416,5.434s-6.567,-8.15 -4.076,-8.604c3.623,-2.944 16.982,15.17 16.982,15.17s-5.207,-10.642 -12.906,-19.02c6.435,-3.22 22.418,17.436 22.418,17.436s-0.453,-6.567 -12.002,-16.983c8.605,1.132 19.7,17.436 19.7,17.436s-4.076,-12.228 -13.814,-20.832c8.45,0.88 21.964,21.738 21.964,21.738s-5.207,-14.492 -15.85,-22.87c11.775,-2.604 28.758,14.945 28.758,14.945s-6.68,-12.455 -15.4,-17.55c9.738,-3.736 23.098,11.662 23.098,11.662s-13.36,-20.607 -34.645,-19.7c-6.984,0.297 -28.1,21.188 -73.368,19.474c-59.781,-2.266 -72.461,-27.616 -104.401,-44.836" fill="#373535" id="svg_33" />
                            </g>
                            <path d="m-62.82265,476.88992c33.74,33.74 60.686,44.154 85.142,48.9c3.237,0.63 3.85,7.7 3.85,7.7s0.452,-5.2 2.718,-5.887s5.207,8.15 5.207,8.15s-2.717,-7.926 0,-8.378s7.7,7.7 7.7,7.7s-2.037,-7.02 -0.68,-7.472s8.152,10.2 8.152,10.2s-4.076,-7.02 -0.226,-7.7s9.467,4.8 9.467,4.8s-4.416,-5.005 -2.448,-5.696c8.38,-2.944 15.157,7.945 15.157,7.945s-1.57,-4.775 -5.645,-9.983c8.83,-2.265 15.4,11.04 15.4,11.04l-6.58,-13.305c3.397,-1.8 16.983,13.812 16.983,13.812s-7.018,-12.226 -11.094,-14.717c2.264,-1.812 10.416,5.434 10.416,5.434s-6.567,-8.152 -4.076,-8.604c3.623,-2.945 16.982,15.17 16.982,15.17s-5.2,-10.643 -12.906,-19.02c6.435,-3.22 22.418,17.436 22.418,17.436s-0.453,-6.568 -12.002,-16.984c8.605,1.133 19.7,17.437 19.7,17.437s-4.076,-12.228 -13.814,-20.833c8.45,0.88 21.964,21.738 21.964,21.738s-5.207,-14.492 -15.85,-22.87c11.775,-2.604 28.758,14.944 28.758,14.944s-6.68,-12.453 -15.4,-17.548c9.738,-3.736 23.098,11.662 23.098,11.662s-13.36,-20.607 -34.647,-19.7c-6.982,0.298 -28.107,21.2 -73.367,19.474c-59.78,-2.264 -72.46,-27.625 -104.388,-44.834" fill="#000000" id="svg_34" />
                        </g>
                        <g clip-path="url(#K)" id="svg_35">
                            <g clip-path="url(#L)" opacity="0.35" id="svg_36">
                                <path d="m-65.08865,470.4349c17.832,-8.945 34.137,1.358 54.686,-4.433c15.623,-4.404 34.645,-9.833 60.458,-6.096s47.893,14.944 58.424,34.985c3.283,8.943 16.642,-2.04 16.642,-2.04s-9.736,4.076 -9.5,2.15s14.605,-8.604 14.605,-8.604s-13.02,4.076 -12.228,1.02s16.302,-15.285 16.302,-15.285s-17.548,13.36 -19.02,11.55s7.472,-9.172 7.472,-9.172s-14.832,9.172 -20.04,6.467c-3.746,-1.943 15.4,-14.506 15.4,-14.506s-12.455,9.512 -15.4,7.02s14.04,-22.87 14.04,-22.87s-19.261,20.834 -21.181,19.814s5.32,-10.983 5.32,-10.983s-9.5,10.417 -12.113,8.605s13.586,-28.87 13.586,-28.87s-17.55,27.738 -24.795,23.098c11.38,-24.966 7.133,-28.533 7.133,-28.533s-1.452,25.47 -15.625,24.796c-7.133,-0.34 3.396,-19.02 3.396,-19.02s-9.7,17.062 -16.145,16.722c11.895,-22.5 7.655,-31.667 7.655,-31.667s1.967,19.226 -14.166,29.925c6.113,-5.433 -3.836,-29.925 -3.836,-29.925s8.752,36.1 -6.455,29.2c-2.403,-1.085 -0.17,-18.002 -0.17,-18.002s-3.057,19.362 -7.64,18.342c-2.673,-0.593 -16.984,-26.833 -16.984,-26.833s11.72,28.362 8.153,27.173c-2.598,-0.867 -7.473,-12.568 -7.473,-12.568s2.377,11.55 0,12.228s-15.625,-12.228 -15.625,-12.228s9.85,11.55 8.152,13.927c-2.574,3.603 -5.6,3.772 -9.17,2.377c-5.2,-2.03 -12.227,-11.548 -12.227,-11.548s6.996,9.637 5.773,13.247c-1.963,5.8 -22.077,-11.2 -22.077,-11.2s11.888,11.2 9.17,13.587s-17.47,1.642 -22.078,1.655c-13.586,0.042 -18.294,3.23 -22.418,6.496" fill="#373535" id="svg_37" />
                            </g>
                            <path d="m-65.76865,472.4729c17.832,-8.945 34.136,1.358 54.685,-4.434c15.623,-4.402 34.646,-9.832 60.46,-6.095s47.9,14.945 58.422,34.984c3.283,8.944 16.642,-2.037 16.642,-2.037s-9.736,4.075 -9.5,2.15s14.605,-8.604 14.605,-8.604s-13.02,4.075 -12.228,1.018s16.304,-15.284 16.304,-15.284s-17.55,13.36 -19.02,11.548s7.473,-9.17 7.473,-9.17s-14.833,9.17 -20.04,6.467c-3.747,-1.944 15.398,-14.506 15.398,-14.506s-12.455,9.5 -15.398,7.02s14.04,-22.87 14.04,-22.87s-19.25,20.833 -21.174,19.814s5.322,-10.982 5.322,-10.982s-9.512,10.416 -12.115,8.604s13.586,-28.87 13.586,-28.87s-17.55,27.74 -24.795,23.097c11.38,-24.965 7.133,-28.532 7.133,-28.532s-1.452,25.47 -15.625,24.795c-7.133,-0.34 3.396,-19.02 3.396,-19.02s-9.7,17.063 -16.144,16.723c11.896,-22.512 7.654,-31.668 7.654,-31.668s1.967,19.227 -14.166,29.926c6.113,-5.434 -3.836,-29.926 -3.836,-29.926s8.754,36.1 -6.453,29.2c-2.403,-1.086 -0.17,-18.002 -0.17,-18.002s-3.06,19.36 -7.642,18.342c-2.674,-0.593 -16.985,-26.833 -16.985,-26.833s11.72,28.362 8.153,27.172c-2.598,-0.865 -7.473,-12.566 -7.473,-12.566s2.378,11.548 0,12.227s-15.624,-12.227 -15.624,-12.227s9.85,11.548 8.15,13.926c-2.574,3.603 -5.6,3.77 -9.17,2.376c-5.2,-2.03 -12.228,-11.547 -12.228,-11.547s6.996,9.638 5.774,13.247c-1.964,5.8 -22.077,-11.2 -22.077,-11.2s11.888,11.2 9.17,13.586s-17.47,1.642 -22.078,1.656c-13.586,0.043 -18.293,3.23 -22.417,6.496" fill="#000000" id="svg_38" />
                        </g>
                    </g>
                </g>
            </svg>